<svg version="1.1" xmlns="http://www.w3.org/2000/svg" viewBox="0 0 799.2262166867574 592.3731296380704" width="799.2262166867574" height="592.3731296380704" class="excalidraw-svg">
  <!-- svg-source:excalidraw -->
  
  <defs>
    <style class="style-fonts">
      @font-face {
        font-family: "Virgil";
        src: url("https://excalidraw.com/Virgil.woff2");
      }
      @font-face {
        font-family: "Cascadia";
        src: url("https://excalidraw.com/Cascadia.woff2");
      }
      @font-face {
        font-family: "Assistant";
        src: url("https://excalidraw.com/Assistant-Regular.woff2");
      }
    </style>
    
  </defs>
  <g stroke-linecap="round"><g transform="translate(375.9234559518602 430.55817146205567) rotate(0 -44.68465897779783 64.21071527360522)"><path d="M2.24 0.41 C-12.58 10.83, -88.34 40.43, -90.35 61.49 C-92.36 82.55, -23.54 115.49, -9.81 126.78 M0.01 -1.84 C-15.14 9.02, -91.24 42.45, -93.12 64.26 C-94.99 86.06, -24.31 117.66, -11.23 129" stroke="#1e1e1e" stroke-width="4" fill="none"></path></g></g><mask></mask><g stroke-linecap="round"><g transform="translate(389.0555667939375 393.92830563402885) rotate(0 -9.898489191152976 18.55961059397532)"><path d="M-0.98 -1.59 C-4.53 4.25, -16.38 28.89, -19.09 35.48 M3.69 3.71 C-0.38 9.86, -17.38 33.36, -20.94 38.22" stroke="#1e1e1e" stroke-width="4" fill="none"></path></g></g><mask></mask><g stroke-linecap="round"><g transform="translate(415.73785832332624 394.4666554783395) rotate(0 7.102703119142575 13.907898916395908)"><path d="M0.3 -0.7 C2.92 4.11, 13.17 23.42, 15.29 28.18 M-1 1.54 C1.6 6.04, 12.19 21.64, 14.91 26.25" stroke="#1e1e1e" stroke-width="4" fill="none"></path></g></g><mask></mask><g stroke-linecap="round"><g transform="translate(430.58554679850613 421.84847697271215) rotate(0 35.58451423012862 71.45865283547376)"><path d="M2.53 0.85 C13.83 10.12, 66.99 29.98, 68.46 54.01 C69.92 78.04, 20.4 130.08, 11.34 145.03 M0.47 -1.16 C12.51 8.75, 70.63 34.06, 73.39 57.69 C76.14 81.33, 26.7 125.81, 16.97 140.65" stroke="#1e1e1e" stroke-width="4" fill="none"></path></g></g><mask></mask><g stroke-linecap="round" transform="translate(321.88604143836665 483.49517227658356) rotate(358.53297800755615 72.77306620764107 48.5153774717607)"><path d="M24.26 0 C45.9 0.44, 72.8 1.98, 121.29 0 C140.82 5.08, 148.9 4.18, 145.55 24.26 C142.3 38.73, 143.59 65.59, 145.55 72.77 C146.82 83.64, 132.75 92.01, 121.29 97.03 C92.02 99.86, 70.32 97.66, 24.26 97.03 C9.78 94.23, 0.85 85.14, 0 72.77 C0.78 62.51, -3.81 40.34, 0 24.26 C3.39 3.96, 10.54 -3.95, 24.26 0" stroke="none" stroke-width="0" fill="#1e1e1e"></path><path d="M24.26 0 C62.29 -1.28, 103.06 2.69, 121.29 0 M24.26 0 C55.77 -2.7, 88.38 -1.46, 121.29 0 M121.29 0 C137.11 -1.46, 142.24 7.42, 145.55 24.26 M121.29 0 C135.19 -4.02, 144.89 8.84, 145.55 24.26 M145.55 24.26 C143.32 37.67, 142.4 46.58, 145.55 72.77 M145.55 24.26 C145.18 36.35, 144.26 48.71, 145.55 72.77 M145.55 72.77 C142.28 88.24, 139.71 94.72, 121.29 97.03 M145.55 72.77 C148.2 93.07, 136.04 93.97, 121.29 97.03 M121.29 97.03 C93.87 95.9, 63.14 92.91, 24.26 97.03 M121.29 97.03 C96.57 100.33, 70.87 98.86, 24.26 97.03 M24.26 97.03 C8.4 94.44, 0.5 91.04, 0 72.77 M24.26 97.03 C8.09 100.28, -2.42 89.56, 0 72.77 M0 72.77 C-0.49 56.94, -3.35 42.23, 0 24.26 M0 72.77 C1.73 59.73, 2.75 46.2, 0 24.26 M0 24.26 C1.16 8.42, 9.96 -2.37, 24.26 0 M0 24.26 C-0.46 8.71, 10.08 -2.89, 24.26 0" stroke="#1e1e1e" stroke-width="2" fill="none"></path></g><g stroke-linecap="round"><g transform="translate(322.93980535344963 504.04864672109915) rotate(0 -6.18652176080866 -5.567883178192574)"><path d="M-0.95 0.91 C-2.78 -0.9, -10.43 -8.9, -12.13 -10.79 M0.75 0.34 C-1.11 -1.85, -10.94 -10.61, -12.95 -12.74" stroke="#1e1e1e" stroke-width="4" fill="none"></path></g></g><mask></mask><g stroke-linecap="round"><g transform="translate(467.7047679864572 506.52324636311295) rotate(0 9.27980529698766 -12.373066177392047)"><path d="M0.57 0.8 C4.49 -3.41, 18.43 -18.49, 21.35 -23.12 M-2.57 -1.23 C1.44 -6.44, 17.53 -23.28, 20.62 -27.24" stroke="#1e1e1e" stroke-width="2" fill="none"></path></g></g><mask></mask><g stroke-linecap="round"><g transform="translate(392.22904844532377 388.97906103845224) rotate(0 -7.604628230995331 0.8732567008537728)"><path d="M1.19 0.7 C-1.42 0.78, -12.73 0.66, -15.43 0.81 M0.36 0.02 C-2.45 0.19, -13.82 1.39, -16.49 1.85" stroke="#1e1e1e" stroke-width="4" fill="none"></path></g></g><mask></mask><g stroke-linecap="round"><g transform="translate(376.51061970530805 388.9077886611875) rotate(0 0.6186385826160858 -14.22902723678942)"><path d="M-0.22 -0.94 C-0.17 -5.83, 1.23 -24, 1.46 -28.66 M-1.79 1.18 C-1.99 -3.59, 0.27 -22.39, 0.62 -27.22" stroke="#1e1e1e" stroke-width="4" fill="none"></path></g></g><mask></mask><g stroke-linecap="round"><g transform="translate(415.9952764554241 353.10715229699866) rotate(0 3.459381191680677 19.891441852164007)"><path d="M0.22 -0.2 C1.39 3.25, 6.92 13.11, 6.81 19.74 C6.71 26.37, 0.72 36.42, -0.41 39.58 M-1.12 -1.35 C-0.1 2.35, 5.3 14.03, 5.81 21.05 C6.33 28.08, 2.94 37.76, 1.96 40.8" stroke="#1e1e1e" stroke-width="4" fill="none"></path></g></g><mask></mask><g stroke-linecap="round"><g transform="translate(375.35698031068114 356.050045881054) rotate(0 20.76355878155225 -7.025675510579816)"><path d="M-0.1 -0.44 C1.82 -2.12, 6.84 -7.88, 11.75 -10.32 C16.65 -12.77, 24.42 -16.12, 29.35 -15.1 C34.29 -14.08, 39.4 -5.77, 41.35 -4.18 M-1.62 -1.71 C0.65 -3.19, 8.95 -6.79, 13.94 -8.89 C18.92 -10.99, 23.68 -15.32, 28.28 -14.33 C32.87 -13.35, 39.06 -4.4, 41.51 -2.97" stroke="#1e1e1e" stroke-width="2" fill="none"></path></g></g><mask></mask><g stroke-linecap="round" transform="translate(329.5794863770732 335.90988364575014) rotate(0 7.313802225404224 7.313802225404224)"><path d="M5.69 -0.17 C7.1 -0.5, 8.2 0.55, 9.53 1.33 C10.86 2.12, 12.96 3.31, 13.67 4.52 C14.38 5.73, 14.26 7.23, 13.8 8.58 C13.34 9.93, 12.07 11.58, 10.91 12.62 C9.75 13.65, 8.31 14.85, 6.83 14.77 C5.36 14.69, 3.17 13.42, 2.06 12.13 C0.94 10.84, 0.28 8.45, 0.14 7.02 C0 5.6, 0.31 4.65, 1.21 3.59 C2.11 2.53, 4.49 1.29, 5.57 0.67 C6.65 0.05, 7.68 -0.19, 7.68 -0.14 M5.43 1.48 C6.93 0.63, 7.79 -0.75, 9.31 -0.16 C10.82 0.43, 13.68 3.28, 14.5 5.03 C15.32 6.78, 14.87 8.95, 14.21 10.36 C13.55 11.76, 11.72 12.91, 10.53 13.46 C9.34 14.01, 8.42 13.65, 7.09 13.65 C5.75 13.65, 3.71 14.2, 2.54 13.47 C1.37 12.75, 0.42 10.95, 0.06 9.3 C-0.3 7.65, -0.59 5.11, 0.37 3.56 C1.33 2.01, 4.76 0.56, 5.8 0 C6.84 -0.56, 6.61 0.26, 6.59 0.21" stroke="#1e1e1e" stroke-width="2" fill="none"></path></g><g stroke-linecap="round" transform="translate(312.80076733179817 389.85998514432043) rotate(0 7.313802225404224 7.313802225404224)"><path d="M5.82 0.62 C7.21 0.52, 9.94 0.89, 11.28 1.58 C12.62 2.28, 13.51 3.43, 13.86 4.79 C14.21 6.16, 13.94 8.19, 13.39 9.75 C12.84 11.32, 11.92 13.45, 10.57 14.17 C9.22 14.89, 6.84 14.67, 5.3 14.07 C3.77 13.48, 2.29 11.76, 1.38 10.6 C0.48 9.44, -0.18 8.45, -0.14 7.13 C-0.09 5.8, 0.29 3.88, 1.65 2.64 C3 1.4, 7.16 0.08, 8.01 -0.31 C8.87 -0.7, 7.02 0.29, 6.78 0.3 M9.32 -0.15 C10.79 0.32, 13.69 3.29, 14.51 5.05 C15.32 6.8, 14.87 8.97, 14.21 10.37 C13.54 11.78, 11.71 12.93, 10.52 13.47 C9.33 14.02, 8.4 13.65, 7.07 13.65 C5.74 13.64, 3.7 14.19, 2.53 13.46 C1.36 12.74, 0.41 10.94, 0.06 9.28 C-0.3 7.63, -0.58 5.1, 0.38 3.55 C1.34 2, 3.95 0.54, 5.81 0 C7.68 -0.54, 10.8 0.41, 11.56 0.31 C12.33 0.2, 10.52 -0.69, 10.41 -0.63" stroke="#1e1e1e" stroke-width="2" fill="none"></path></g><g stroke-linecap="round" transform="translate(267.54119526372983 356.1304364590432) rotate(0 7.313802225404224 7.313802225404224)"><path d="M5.56 0.34 C7.07 -0.27, 8.93 -0.44, 10.27 0.16 C11.62 0.75, 12.91 2.29, 13.62 3.9 C14.33 5.51, 14.93 8.27, 14.51 9.84 C14.09 11.4, 12.47 12.64, 11.11 13.28 C9.75 13.93, 7.91 13.82, 6.34 13.73 C4.76 13.63, 2.8 13.65, 1.64 12.71 C0.49 11.76, -0.72 9.77, -0.58 8.06 C-0.43 6.35, 1.36 3.75, 2.5 2.44 C3.64 1.12, 5.47 0.7, 6.28 0.16 C7.1 -0.38, 7.17 -0.93, 7.42 -0.8 M10.73 1.6 C12.24 2.43, 13.11 4.04, 13.53 5.3 C13.95 6.56, 13.52 8.02, 13.25 9.15 C12.99 10.29, 12.94 11.06, 11.94 12.1 C10.94 13.14, 8.84 15.12, 7.25 15.41 C5.67 15.7, 3.76 14.96, 2.43 13.81 C1.1 12.67, -0.61 10.33, -0.72 8.54 C-0.83 6.76, 0.57 4.53, 1.76 3.12 C2.96 1.71, 5.02 0.75, 6.45 0.1 C7.89 -0.56, 9.6 -0.81, 10.36 -0.81 C11.13 -0.8, 11.37 -0.22, 11.05 0.11" stroke="#1e1e1e" stroke-width="2" fill="none"></path></g><g stroke-linecap="round" transform="translate(463.3791670709943 329.4565398623504) rotate(0 7.313802225404231 7.313802225404224)"><path d="M8.93 -0.41 C10.35 -0.22, 11.97 1.13, 12.96 2.6 C13.94 4.07, 14.95 6.78, 14.84 8.41 C14.73 10.05, 13.45 11.51, 12.28 12.4 C11.1 13.3, 9.39 13.59, 7.79 13.8 C6.2 14.02, 4.08 14.42, 2.71 13.7 C1.35 12.99, -0.23 11.18, -0.4 9.51 C-0.56 7.84, 1 5.13, 1.71 3.66 C2.41 2.2, 2.58 1.43, 3.81 0.73 C5.05 0.02, 7.98 -0.58, 9.13 -0.57 C10.29 -0.55, 10.55 0.65, 10.73 0.84 M5.32 1.65 C6.43 1.07, 7.85 0.79, 9.32 1.08 C10.78 1.36, 13.25 1.87, 14.12 3.38 C14.99 4.89, 14.98 8.28, 14.53 10.13 C14.07 11.97, 12.86 13.67, 11.39 14.44 C9.93 15.22, 7.2 15.18, 5.75 14.79 C4.3 14.39, 3.42 13.26, 2.7 12.06 C1.98 10.85, 1.59 9.28, 1.43 7.55 C1.26 5.82, 0.86 2.98, 1.72 1.67 C2.59 0.36, 6.19 -0.12, 6.61 -0.34 C7.04 -0.56, 4.31 0.16, 4.27 0.34" stroke="#1e1e1e" stroke-width="2" fill="none"></path></g><g stroke-linecap="round" transform="translate(458.2164164189671 387.96698917612906) rotate(0 7.313802225404224 7.313802225404224)"><path d="M7.52 -0.72 C9.14 -0.51, 11.62 1.18, 12.8 2.37 C13.98 3.57, 14.5 5.07, 14.6 6.47 C14.7 7.86, 14.33 9.33, 13.39 10.75 C12.45 12.16, 10.6 14.34, 8.96 14.96 C7.33 15.58, 4.82 15.31, 3.58 14.49 C2.35 13.67, 2.22 11.53, 1.55 10.03 C0.89 8.54, -0.57 7.13, -0.4 5.51 C-0.23 3.89, 0.88 1.16, 2.57 0.3 C4.26 -0.55, 8.41 0.42, 9.74 0.38 C11.07 0.33, 10.79 -0.13, 10.55 0.03 M8.66 0.79 C10.14 0.82, 12.79 1.3, 13.8 2.74 C14.8 4.18, 15 7.55, 14.69 9.43 C14.39 11.31, 13.34 13.11, 11.97 14.01 C10.6 14.91, 7.92 15.07, 6.47 14.83 C5.01 14.58, 4.05 13.64, 3.23 12.55 C2.4 11.46, 1.83 9.97, 1.51 8.26 C1.19 6.55, 0.59 3.67, 1.33 2.27 C2.06 0.87, 4.72 0.17, 5.93 -0.13 C7.13 -0.44, 7.79 0.36, 8.55 0.44 C9.31 0.53, 10.06 0.4, 10.48 0.39" stroke="#1e1e1e" stroke-width="2" fill="none"></path></g><g stroke-linecap="round" transform="translate(520.1687310113082 363.0140094634448) rotate(0 7.313802225404231 7.313802225404224)"><path d="M4.95 0.67 C6.38 0.13, 8.21 -0.22, 9.67 0.12 C11.13 0.46, 12.92 1.24, 13.7 2.72 C14.48 4.2, 14.72 7.22, 14.36 9 C14 10.78, 12.55 12.51, 11.55 13.4 C10.55 14.29, 9.94 14.36, 8.36 14.32 C6.77 14.28, 3.53 14.26, 2.06 13.16 C0.59 12.07, -0.41 9.28, -0.47 7.75 C-0.52 6.22, 0.62 5.31, 1.71 3.98 C2.79 2.64, 5.42 0.27, 6.04 -0.27 C6.66 -0.8, 5.41 0.56, 5.44 0.74 M10.79 -0.15 C12.39 0.52, 13.67 3.5, 14.25 5.28 C14.83 7.07, 14.92 9.16, 14.29 10.55 C13.66 11.95, 11.68 13.06, 10.47 13.67 C9.26 14.29, 8.22 14.52, 7.04 14.24 C5.85 13.96, 4.46 13.32, 3.34 12 C2.23 10.68, 0.46 7.93, 0.33 6.32 C0.19 4.7, 1.88 3.35, 2.56 2.32 C3.24 1.3, 2.93 0.44, 4.39 0.16 C5.86 -0.13, 10.06 0.61, 11.33 0.61 C12.6 0.61, 12.12 0, 12.03 0.17" stroke="#1e1e1e" stroke-width="2" fill="none"></path></g><g stroke-linecap="round"><g transform="translate(279.91203406270824 368.60140075279327) rotate(0 16.95606480854277 13.088899395479096)"><path d="M-1.01 -1.51 C11.22 8.97, 21.5 16.42, 34.16 24.55 M0.58 0.9 C9.41 6.92, 19.45 14.37, 32.93 26.98" stroke="#1e1e1e" stroke-width="2" fill="none"></path></g></g><mask></mask><g stroke-linecap="round"><g transform="translate(281.10192608494935 359.67715611671787) rotate(0 24.690417422376775 -7.139395708860079)"><path d="M0.54 0.36 C11.23 -3.41, 22.66 -7.72, 49.03 -13.15 M-0.31 -0.67 C12.03 -4.51, 22.86 -6.56, 49.57 -13.51" stroke="#1e1e1e" stroke-width="2" fill="none"></path></g></g><mask></mask><g stroke-linecap="round"><g transform="translate(338.81204866080407 350.7529114806429) rotate(0 -7.436874161347058 22.31061159018791)"><path d="M-0.01 -0.55 C-2.97 8.42, -6.92 21.21, -16.03 45.77 M0.15 -0.6 C-6.91 18.09, -11.54 35.45, -15.43 44.14" stroke="#1e1e1e" stroke-width="2" fill="none"></path></g></g><mask></mask><g stroke-linecap="round"><g transform="translate(342.9767034202082 342.42362374954104) rotate(0 60.68486352531095 -17.977869324225907)"><path d="M0.5 -3.26 C20.36 -8.82, 39.81 -20.21, 69.77 -37.19 M-1.96 1.59 C15.72 -6.06, 29.68 -16.96, 67.1 -34.53 M67.06 -35.64 C79.85 -26.2, 100.22 -18.34, 124.19 -8.65 M68.07 -36.31 C84.16 -28.28, 102.44 -18.02, 119.61 -6.57" stroke="#1e1e1e" stroke-width="2" fill="none"></path></g></g><mask></mask><g stroke-linecap="round"><g transform="translate(471.4858261796901 344.20847267675657) rotate(0 -2.677273390822563 22.013133137700905)"><path d="M-0.35 1.13 C-2.56 13.1, -1.07 23.32, -6.69 44.33 M0.19 0.77 C-2.27 10.11, -2.54 21.86, -5.51 44.98" stroke="#1e1e1e" stroke-width="2" fill="none"></path></g></g><mask></mask><g stroke-linecap="round"><g transform="translate(476.8403729613351 338.85392589511184) rotate(0 23.203036053795387 13.683845406599627)"><path d="M-1.16 1.15 C11.88 5.1, 18.89 12, 45.2 25.41 M-0.55 -0.49 C18.13 10.75, 35.14 21.38, 45.6 27.59" stroke="#1e1e1e" stroke-width="2" fill="none"></path></g></g><mask></mask><g stroke-linecap="round"><g transform="translate(474.4605453414397 392.3993937115619) rotate(0 24.690417422376782 -9.221723088562044)"><path d="M1.79 -0.62 C16.37 -6.55, 34.09 -15.38, 50.98 -18.06 M0.46 0.71 C18.54 -5.75, 36.48 -13.43, 49.46 -19.09" stroke="#1e1e1e" stroke-width="2" fill="none"></path></g></g><mask></mask><g stroke-linecap="round"><g transform="translate(618.5210367919649 245.25650994369107) rotate(0 16.348489824272775 -15.057849427083049)"><path d="M-1.33 0.31 C10.22 -12.63, 24.71 -21.06, 34.23 -31.23 M-0.16 0.95 C7.27 -7.59, 16.39 -16.03, 32.82 -29.59" stroke="#1e1e1e" stroke-width="2" fill="none"></path></g></g><mask></mask><g stroke-linecap="round"><g transform="translate(650.3575895090503 216.86172797353402) rotate(0 21.080963989480495 -0.8604584420045356)"><path d="M-1.21 -1.96 C12.96 -0.14, 24.24 -2.1, 41.19 -0.81 M-0.81 0.22 C15.74 -1.69, 31.45 -1.16, 42.16 -1.02" stroke="#1e1e1e" stroke-width="2" fill="none"></path></g></g><mask></mask><g stroke-linecap="round"><g transform="translate(692.5195174880114 216.0012695315295) rotate(0 21.941422431484966 -21.08097974475281)"><path d="M1.59 0.39 C15.63 -13.98, 26.97 -25.25, 45.31 -42.48 M0.08 -0.65 C17.82 -16.25, 35.05 -32.74, 43.36 -42.03" stroke="#1e1e1e" stroke-width="2" fill="none"></path></g></g><mask></mask><g stroke-linecap="round" transform="translate(569.7979921102583 106.74234270210354) rotate(0 109.71411228824954 101.92792046521234)"><path d="M53.35 14.97 C63.6 7.06, 78.61 2.3, 91.43 0.12 C104.25 -2.06, 117.82 -0.68, 130.28 1.89 C142.73 4.45, 154.81 9.06, 166.14 15.5 C177.48 21.93, 189.88 30.9, 198.29 40.47 C206.71 50.05, 213.15 61, 216.64 72.95 C220.13 84.9, 220.75 99.46, 219.23 112.17 C217.71 124.88, 213.49 138.3, 207.51 149.21 C201.52 160.12, 193.29 169.46, 183.3 177.65 C173.32 185.85, 159.98 194.3, 147.6 198.37 C135.22 202.44, 121.93 202.18, 109.02 202.1 C96.1 202.01, 82.34 201.68, 70.09 197.86 C57.85 194.04, 45.49 187.49, 35.55 179.18 C25.61 170.86, 16.29 159.12, 10.48 147.97 C4.66 136.83, 1.89 124.66, 0.64 112.31 C-0.61 99.96, -0.63 85.69, 2.99 73.87 C6.62 62.05, 5.85 53.89, 22.41 41.4 C38.96 28.91, 80.39 3.69, 102.33 -1.06 C124.27 -5.82, 153.82 10.82, 154.04 12.84 M154.43 9.56 C166.02 12.7, 174 22.36, 183.4 30.86 C192.8 39.35, 205.24 50.24, 210.84 60.53 C216.44 70.81, 216.62 80.3, 216.99 92.55 C217.35 104.81, 216.46 122.43, 213.03 134.07 C209.6 145.7, 204.77 153.54, 196.39 162.38 C188.01 171.23, 174.36 180.65, 162.76 187.12 C151.17 193.59, 139.65 198.94, 126.83 201.19 C114.01 203.45, 98.31 202.62, 85.82 200.65 C73.34 198.68, 62.62 195.74, 51.92 189.36 C41.21 182.98, 29.9 172.58, 21.58 162.35 C13.27 152.12, 5.83 139.9, 2.02 127.99 C-1.8 116.08, -2.99 102.94, -1.31 90.89 C0.38 78.85, 5.59 66.22, 12.14 55.74 C18.69 45.25, 28.3 36.33, 37.99 27.96 C47.69 19.59, 57.62 10.55, 70.3 5.53 C82.98 0.51, 100.29 -2.2, 114.08 -2.18 C127.87 -2.16, 146.75 3.61, 153.03 5.65 C159.31 7.68, 152.74 8.29, 151.76 10.03" stroke="#343a40" stroke-width="4" fill="none"></path></g><g stroke-linecap="round"><g transform="translate(474.63130708128574 330.39583078036185) rotate(0 62.31767969079604 -22.82125661388428)"><path d="M-1.94 1.83 C41.96 -13.82, 82.72 -31.01, 125.51 -45.33 M0 1.41 C28.15 -11.77, 59.39 -23.21, 126.52 -46" stroke="#1e1e1e" stroke-width="2" fill="none"></path></g></g><mask></mask><g stroke-linecap="round"><g transform="translate(606.9970685287838 257.52304782010106) rotate(0 0 -53.94174957453542)"><path d="M2.86 -0.63 C4.87 -29.62, 1.93 -52.44, -2.59 -107.39 M-1.05 0.27 C0.88 -38.45, 1.88 -76.39, 0.42 -109.66" stroke="#1e1e1e" stroke-width="2" fill="none"></path></g><g transform="translate(606.9970685287838 257.52304782010106) rotate(0 0 -53.94174957453542)"><path d="M10.92 -86.68 C9.3 -93.64, 5.61 -97.56, -0.87 -109.42 M8.97 -86.23 C6.73 -94.73, 4.04 -102.9, 0.64 -110.55" stroke="#1e1e1e" stroke-width="2" fill="none"></path></g><g transform="translate(606.9970685287838 257.52304782010106) rotate(0 0 -53.94174957453542)"><path d="M-6.18 -86.3 C-3.62 -93.43, -3.12 -97.45, -0.87 -109.42 M-8.13 -85.85 C-4.34 -94.61, -1.01 -102.91, 0.64 -110.55" stroke="#1e1e1e" stroke-width="2" fill="none"></path></g></g><mask></mask><g stroke-linecap="round"><g transform="translate(609.0919190783054 255.42823562797048) rotate(0 78.55593667228683 0)"><path d="M3.82 -3.24 C55.18 0.81, 106.02 0.99, 159.21 0 M0.88 -0.44 C60.1 -0.77, 116.86 -2.2, 158.52 -0.74" stroke="#1e1e1e" stroke-width="2" fill="none"></path></g><g transform="translate(609.0919190783054 255.42823562797048) rotate(0 78.55593667228683 0)"><path d="M136.81 5.82 C143.45 4.81, 149.87 2.07, 159.57 -0.74 M135.34 7.23 C144.64 4.2, 152.66 0.46, 159.23 -1.11" stroke="#1e1e1e" stroke-width="2" fill="none"></path></g><g transform="translate(609.0919190783054 255.42823562797048) rotate(0 78.55593667228683 0)"><path d="M137.08 -11.27 C143.74 -6.38, 150.08 -3.21, 159.57 -0.74 M135.6 -9.87 C144.71 -6.56, 152.64 -3.97, 159.23 -1.11" stroke="#1e1e1e" stroke-width="2" fill="none"></path></g></g><mask></mask><g stroke-linecap="round" transform="translate(298.32973427129537 10) rotate(0 109.71411228824954 101.92792046521234)"><path d="M119.41 0.32 C132.51 -0.56, 146.93 3.56, 158.7 9.03 C170.47 14.5, 181.33 23.68, 190.06 33.13 C198.78 42.57, 206.2 54.4, 211.04 65.71 C215.87 77.02, 219.11 88.78, 219.07 100.98 C219.02 113.17, 215.43 127.73, 210.76 138.87 C206.09 150.01, 199.52 158.72, 191.05 167.81 C182.57 176.91, 171.58 187.2, 159.91 193.42 C148.24 199.65, 134.34 203.94, 121.03 205.18 C107.72 206.43, 92.75 204.27, 80.07 200.91 C67.39 197.55, 55.62 192.42, 44.95 185.03 C34.28 177.63, 23.13 166.91, 16.04 156.55 C8.95 146.19, 5.03 135.08, 2.42 122.87 C-0.2 110.67, -1.56 95.37, 0.35 83.33 C2.26 71.28, 6.97 60.8, 13.89 50.61 C20.82 40.41, 31.02 29.65, 41.88 22.14 C52.74 14.63, 62.16 8.18, 79.05 5.55 C95.95 2.91, 129.06 4.96, 143.27 6.35 C157.48 7.73, 164.76 12.31, 164.31 13.83 M173.13 21.72 C184.73 27.25, 195.93 34.67, 202.87 44.23 C209.81 53.8, 212.34 66.84, 214.75 79.12 C217.15 91.41, 219.33 105.55, 217.3 117.93 C215.27 130.31, 208.91 142.29, 202.56 153.37 C196.2 164.46, 189.22 176.6, 179.15 184.45 C169.08 192.3, 155.39 197.22, 142.13 200.48 C128.88 203.73, 113.27 204.99, 99.6 203.99 C85.94 203, 71.88 199.69, 60.14 194.52 C48.39 189.35, 37.79 181.57, 29.14 172.98 C20.5 164.39, 13.47 154.69, 8.26 142.99 C3.04 131.3, -2.23 115.95, -2.16 102.82 C-2.09 89.69, 3.5 75.99, 8.68 64.22 C13.87 52.45, 20.33 40.95, 28.94 32.19 C37.55 23.44, 48.88 17.15, 60.34 11.7 C71.8 6.25, 85.17 0.93, 97.71 -0.51 C110.25 -1.95, 123.19 -0.5, 135.58 3.07 C147.97 6.65, 165.52 17.4, 172.03 20.95 C178.54 24.5, 175.41 22.76, 174.64 24.38" stroke="#343a40" stroke-width="4" fill="none"></path></g><g stroke-linecap="round"><g transform="translate(407.13275259914917 305.6950795038332) rotate(0 1.553856356936631 -45.209351720403816)"><path d="M-2.59 0.5 C2.38 -19.8, 3.79 -41.71, 3.64 -88.66 M0.42 -1.78 C0.57 -25.87, -1.73 -50.31, 3.98 -90.7" stroke="#1e1e1e" stroke-width="2" fill="none"></path></g></g><mask></mask><g stroke-linecap="round"><g transform="translate(378.6590695152072 85.86133684322613) rotate(0 -16.058194151448276 12.712745204183108)"><path d="M1.05 0 C-8.64 6.82, -19.67 16.57, -32.55 27.31 M0.71 -0.37 C-9.89 6.88, -17.64 13.93, -31.17 24.9" stroke="#1e1e1e" stroke-width="2" fill="none"></path></g></g><mask></mask><g stroke-linecap="round"><g transform="translate(346.5426812123105 111.28682725159251) rotate(0 12.712745204183104 13.381820291920306)"><path d="M1.41 -1.05 C8.35 9.24, 15.59 18.6, 25.07 27.19 M-0.88 -0.01 C5.99 5.6, 11.87 10.87, 25.72 26.85" stroke="#1e1e1e" stroke-width="2" fill="none"></path></g></g><mask></mask><g stroke-linecap="round"><g transform="translate(434.8627490452759 81.8467883053645) rotate(0 13.381820291920342 14.05091988251722)"><path d="M0.27 0.88 C7.79 10.45, 15.9 17.42, 24.98 29.51 M0.44 -0.14 C7.74 6.88, 14.13 14.87, 27.23 27.51" stroke="#1e1e1e" stroke-width="2" fill="none"></path></g></g><mask></mask><g stroke-linecap="round"><g transform="translate(429.51000132622016 138.0504678354332) rotate(0 16.058194151448276 -12.712720701323363)"><path d="M-0.44 1.88 C7.56 -6.01, 14.08 -11.31, 31.38 -27.19 M0.95 -0.52 C9.78 -7.47, 19.55 -15.74, 32.02 -25.29" stroke="#1e1e1e" stroke-width="2" fill="none"></path></g></g><mask></mask><g stroke-linecap="round"><g transform="translate(426.8337009752713 76.49404058630853) rotate(0 -19.202705727682424 33.26006196313983)"><path d="M-0.71 0.85 C-17.06 26.42, -28.18 42.95, -38.45 68.27 M0.58 0.17 C-8.79 17.45, -20.91 37.93, -37.54 65.26" stroke="#1e1e1e" stroke-width="2" fill="none"></path></g></g><mask></mask><g stroke-linecap="round" transform="translate(10 118.6284780503729) rotate(0 109.71411228824954 101.92792046521234)"><path d="M180.79 25.17 C191.53 32.13, 199.8 44.56, 205.92 55.3 C212.04 66.05, 215.76 77.62, 217.51 89.64 C219.25 101.66, 219.57 115.61, 216.37 127.39 C213.17 139.18, 205.87 150.31, 198.29 160.34 C190.71 170.37, 181.9 180.93, 170.9 187.57 C159.9 194.21, 145.53 197.48, 132.29 200.2 C119.06 202.91, 104.43 205.38, 91.48 203.86 C78.54 202.35, 65.67 197.18, 54.63 191.09 C43.6 185.01, 33.28 176.72, 25.26 167.37 C17.23 158.01, 10.45 147.1, 6.48 134.97 C2.5 122.84, 0.52 106.96, 1.38 94.6 C2.25 82.25, 6.16 72.02, 11.65 60.84 C17.14 49.67, 25.44 36.48, 34.34 27.54 C43.24 18.6, 52.9 11.71, 65.05 7.21 C77.21 2.7, 94.13 1.05, 107.28 0.52 C120.43 -0.02, 131.08 -0.66, 143.93 4 C156.78 8.65, 176.92 23.43, 184.37 28.46 C191.82 33.5, 189.75 32.69, 188.66 34.2 M177.25 23.16 C187.58 29.24, 196.12 41.16, 202.85 51.95 C209.59 62.75, 215.28 75.44, 217.66 87.94 C220.03 100.44, 220.25 115.29, 217.11 126.96 C213.97 138.63, 205.9 148.61, 198.82 157.96 C191.75 167.31, 184.88 176.29, 174.65 183.09 C164.43 189.88, 150.45 195.35, 137.47 198.74 C124.5 202.13, 110.18 204.8, 96.79 203.42 C83.41 202.05, 69.37 196.47, 57.15 190.5 C44.93 184.52, 32.42 176.53, 23.49 167.57 C14.55 158.61, 7.23 147.74, 3.55 136.72 C-0.14 125.71, 0.63 113.5, 1.39 101.48 C2.15 89.46, 3.03 76.71, 8.1 64.62 C13.18 52.52, 22.35 38.53, 31.83 28.9 C41.31 19.27, 53.16 12.07, 64.98 6.82 C76.8 1.58, 90.1 -1.82, 102.74 -2.55 C115.37 -3.29, 128.56 -1.55, 140.79 2.4 C153.01 6.35, 170.02 17.79, 176.09 21.13 C182.15 24.48, 178.16 20.82, 177.18 22.48" stroke="#343a40" stroke-width="4" fill="none"></path></g><g stroke-linecap="round"><g transform="translate(196.47521210193054 295.0901008548294) rotate(0 36.14096216965495 31.760239482424005)"><path d="M-1.48 -3.52 C22.04 21.13, 44.74 43.58, 70.19 64.68 M-0.2 0.27 C23.75 19.19, 43.95 38.26, 73.44 62.97" stroke="#1e1e1e" stroke-width="2" fill="none"></path></g></g><mask></mask><g stroke-linecap="round"><g transform="translate(71.37979339943604 152.39553334432185) rotate(0 29.74207162755721 0)"><path d="M-0.05 1.75 C21.48 4.84, 41.99 2.21, 59.82 1.88 M0.87 -1.26 C13.1 -1.93, 29.81 -0.71, 60.21 0.79" stroke="#1e1e1e" stroke-width="2" fill="none"></path></g></g><mask></mask><g stroke-linecap="round"><g transform="translate(81.77508303422542 151.8180102037436) rotate(0 0 60.9279511065609)"><path d="M-0.56 3.8 C-2.12 27, 0.31 53.55, -2.37 121.46 M-1.22 -1.77 C2.22 37.65, 1.78 77.19, 1.27 123.05" stroke="#1e1e1e" stroke-width="2" fill="none"></path></g></g><mask></mask><g stroke-linecap="round"><g transform="translate(81.77508303422542 273.096389276287) rotate(0 12.99411204348678 0)"><path d="M-1.04 0.58 C9.1 0.69, 16.68 -0.45, 26.26 0.87 M0.58 -0.27 C6.52 0.62, 12.96 0.83, 26.9 0.6" stroke="#1e1e1e" stroke-width="2" fill="none"></path></g></g><mask></mask><g stroke-linecap="round"><g transform="translate(111.22840366612877 285.80175032411944) rotate(0 11.405944556166531 -11.405944556166531)"><path d="M0.17 0.94 C7.94 -9.28, 18.41 -17.22, 21.55 -24.04 M0.36 0.39 C5.33 -4.16, 10.43 -8.99, 22.11 -21.93" stroke="#1e1e1e" stroke-width="2" fill="none"></path></g></g><mask></mask><g stroke-linecap="round"><g transform="translate(133.17398691832295 261.5460745096111) rotate(0 6.392379894428515 11.07192675843193)"><path d="M-1.18 -0.2 C4.49 8.09, 7.17 13.29, 11.02 23.31 M0.64 0.6 C4.47 6.59, 6.35 12.91, 13.39 22.78" stroke="#1e1e1e" stroke-width="2" fill="none"></path></g></g><mask></mask><g stroke-linecap="round"><g transform="translate(110.65088052555029 285.22422718354073) rotate(0 19.058020422478506 0)"><path d="M0.27 0.87 C11.97 -1.19, 24.68 1.2, 37.57 0.72 M0.91 0.6 C12.23 0.65, 26.47 0.4, 37.39 -0.78" stroke="#1e1e1e" stroke-width="2" fill="none"></path></g></g><mask></mask><g stroke-linecap="round"><g transform="translate(144.72432283426951 142.57775627547608) rotate(0 8.66274136232451 0)"><path d="M-1.09 -1.06 C3.49 0.93, 9.58 0.55, 18.01 1.1 M-0.6 0.76 C6.76 0.44, 11.84 -0.78, 16.9 0.57" stroke="#1e1e1e" stroke-width="2" fill="none"></path></g></g><mask></mask><g stroke-linecap="round"><g transform="translate(149.3444656603565 148.35291365881403) rotate(0 4.9088726724699825 0)"><path d="M-0.58 0.38 C3.19 0.28, 7 0.46, 10.21 0.59 M0.2 0.21 C3.3 -0.31, 6.91 0.16, 9.89 -0.31" stroke="#1e1e1e" stroke-width="2" fill="none"></path></g></g><mask></mask><g stroke-linecap="round"><g transform="translate(146.45687110673452 157.01565502113817) rotate(0 8.373990366670682 0)"><path d="M-0.46 0.6 C4.66 0.97, 9 1.42, 17.75 -1.17 M-0.61 -0.65 C6.08 0.44, 13.19 -0.9, 16.04 -0.75" stroke="#1e1e1e" stroke-width="2" fill="none"></path></g></g><mask></mask><g stroke-linecap="round"><g transform="translate(91.01532638785761 152.39553334432185) rotate(0 0 43.02494524133326)"><path d="M1.57 2.54 C1.93 34.44, 1.93 58.84, 3.52 88.46 M-0.99 1.32 C-0.79 29.37, -2.93 60.73, -0.35 85.16" stroke="#1e1e1e" stroke-width="2" fill="none"></path></g></g><mask></mask><g stroke-linecap="round"><g transform="translate(91.59284952843632 236.71287555452363) rotate(0 8.66274136232451 0)"><path d="M1.04 1.57 C6.86 -1.32, 13.17 0.93, 18.42 -1.26 M0.2 -0.82 C3.12 -0.89, 7.55 -0.5, 16.97 -0.29" stroke="#1e1e1e" stroke-width="2" fill="none"></path></g></g><mask></mask><g stroke-linecap="round"><g transform="translate(130.86393665455034 225.74006277915578) rotate(0 0 13.28287361377604)"><path d="M1.2 -1.4 C1.92 10.86, 1.43 17.86, -1.55 25.58 M-0.84 -0.9 C-0.12 9.27, -0.35 19.1, 0.7 27.25" stroke="#1e1e1e" stroke-width="2" fill="none"></path></g></g><mask></mask><g stroke-linecap="round"><g transform="translate(122.77871843280445 225.74006277915578) rotate(0 11.550325341311165 0)"><path d="M1.76 1.2 C10.29 -1.29, 16.5 -0.83, 24.42 0.46 M-0.18 -0.45 C4.33 -0.13, 10.19 0.89, 23.41 0.3" stroke="#1e1e1e" stroke-width="2" fill="none"></path></g></g><mask></mask><g stroke-linecap="round"><g transform="translate(146.45687110673452 226.89510906031273) rotate(0 -1.155025131886319 2.0212992681187316)"><path d="M0.2 -0.23 C-0.75 0.79, -0.84 1.94, -2.6 3.78 M-0.06 -0.05 C-0.38 0.95, -0.93 1.74, -2.39 4.07" stroke="#1e1e1e" stroke-width="2" fill="none"></path></g></g><mask></mask><g stroke-linecap="round"><g transform="translate(102.5656623038044 152.39553334432185) rotate(0 0 20.501817699289546)"><path d="M-1.55 -0.99 C1.58 15.23, -1.64 27.86, -1.79 40.65 M0.7 0.68 C0.14 10.77, -0.67 21.09, -0.68 41.25" stroke="#1e1e1e" stroke-width="2" fill="none"></path></g></g><mask></mask><g stroke-linecap="round"><g transform="translate(102.5656623038044 192.8216667515935) rotate(0 2.887583978986669 0.5775125659431737)"><path d="M0.26 0.09 C0.94 -0.05, 2.27 0.47, 5.6 0.99 M0.06 0.06 C1.45 0.31, 2.95 0.64, 5.74 1.24" stroke="#1e1e1e" stroke-width="2" fill="none"></path></g></g><mask></mask><g stroke-linecap="round" transform="translate(120.46866816903184 172.6085894733219) rotate(0 14.726660315951676 17.325482724649014)"><path d="M8.26 1.1 C11.02 -0.39, 15.2 0.23, 18.42 1.37 C21.64 2.5, 25.72 5.05, 27.6 7.92 C29.48 10.79, 30.09 15.07, 29.68 18.6 C29.27 22.13, 27.4 26.45, 25.13 29.08 C22.85 31.72, 19.12 34.04, 16.03 34.43 C12.93 34.83, 8.98 33.73, 6.54 31.46 C4.11 29.19, 2.3 24.34, 1.42 20.83 C0.55 17.31, 0.12 13.56, 1.3 10.37 C2.49 7.17, 7.21 3.13, 8.53 1.67 C9.85 0.21, 8.99 1.43, 9.22 1.61 M10.79 0.89 C14.04 0.32, 19.77 1.8, 22.67 3.76 C25.57 5.72, 27.14 9.57, 28.18 12.65 C29.22 15.72, 29.86 19.15, 28.92 22.22 C27.99 25.29, 25.4 29.28, 22.58 31.09 C19.76 32.89, 15.37 33.67, 11.99 33.04 C8.6 32.41, 4.48 30.03, 2.26 27.3 C0.04 24.57, -1.5 20.3, -1.33 16.65 C-1.16 12.99, 1.19 8.06, 3.29 5.37 C5.39 2.68, 9.78 1.23, 11.26 0.51 C12.75 -0.22, 11.86 0.77, 12.21 1.01" stroke="#1e1e1e" stroke-width="2" fill="none"></path></g><g stroke-linecap="round"><g transform="translate(125.08878984584817 190.5115953385498) rotate(0 10.106538639135564 0)"><path d="M-1.79 -0.35 C5.63 -0.65, 12.38 1.58, 21.57 0.62 M-0.68 0.24 C6.5 0.42, 13.45 0.95, 19.49 -0.17" stroke="#1e1e1e" stroke-width="2" fill="none"></path></g></g><mask></mask><g stroke-linecap="round"><g transform="translate(321.0929709472266 404.97727029180095) rotate(0 13.362020542247137 26.27861865167216)"><path d="M-0.5 -1.25 C4.16 7.77, 20.71 42.33, 25.58 51.62 M-4.21 4.24 C0.18 13.89, 17.35 47.12, 22.71 54.74" stroke="#1e1e1e" stroke-width="2" fill="none"></path></g></g><mask></mask><g stroke-linecap="round"><g transform="translate(446.88788158907096 468.22412402894287) rotate(0 9.353414379572882 -33.40505135561756)"><path d="M-1.15 -0.94 C2.38 -11.55, 17.22 -54.07, 20.68 -64.9 M3.42 -3.92 C6.8 -15.2, 17.04 -57.69, 19.51 -68.88" stroke="#1e1e1e" stroke-width="2" fill="none"></path></g></g><mask></mask><g stroke-linecap="round"><g transform="translate(484.7918253452665 513.6480228176279) rotate(0 -11.63317156049959 27.81844889965555)"><path d="M1.97 1.91 C-1.57 11.48, -17.95 47.46, -22.39 56.48 M-0.4 0.47 C-4.14 9.25, -19.69 42.11, -24.16 51.93" stroke="#1e1e1e" stroke-width="4" fill="none"></path></g></g><mask></mask><g stroke-linecap="round"><g transform="translate(388.3275053878217 550.6142070729657) rotate(0 -0.9818357492403287 -14.087069262691173)" fill-rule="evenodd"><path d="M-0.54 -1.58 C-4.79 -4.7, -21.83 -14.04, -24.22 -18.18 C-26.61 -22.32, -19.19 -26.92, -14.88 -26.42 C-10.58 -25.92, -1.8 -15.74, 1.6 -15.19 C5 -14.64, 2.58 -22.06, 5.52 -23.1 C8.47 -24.13, 20 -24.66, 19.28 -21.39 C18.56 -18.11, 4.54 -6.37, 1.2 -3.46" stroke="none" stroke-width="0" fill="#e03131" fill-rule="evenodd"></path><path d="M0.87 0.85 C-3.07 -2.32, -19.37 -12.39, -21.69 -17.11 C-24.01 -21.84, -16.51 -27.3, -13.03 -27.5 C-9.55 -27.69, -4.12 -18.83, -0.82 -18.29 C2.49 -17.76, 3.96 -24.14, 6.82 -24.29 C9.67 -24.44, 17.16 -22.88, 16.31 -19.17 C15.45 -15.47, 4.21 -4.93, 1.69 -2.06 M-2.1 -1.16 C-5.28 -3.99, -15.19 -9.45, -16.05 -13.25 C-16.9 -17.06, -9.82 -22.29, -7.23 -24.02 C-4.64 -25.75, -2.29 -22.56, -0.5 -23.64 C1.29 -24.73, 0.32 -30.81, 3.49 -30.52 C6.66 -30.23, 18.43 -27.36, 18.54 -21.89 C18.65 -16.43, 7.31 -0.72, 4.13 2.28" stroke="#f40101" stroke-width="2" fill="none"></path></g></g><mask></mask></svg>